<svg xmlns="http://www.w3.org/2000/svg" viewBox="0 0 200 200" width="200" height="200" role="img" aria-label="dogear favicon">
  <rect width="200" height="200" rx="46" fill="#16A75C"/>
  <!-- Simplified Folio face for tiny sizes -->
  <path fill="#0E7C43" d="M138 44 C170 20 194 46 182 86 C174 112 152 120 140 106 C131 96 130 66 138 44 Z"/>
  <path fill="#FFC53D" d="M148 54 C166 40 180 56 172 82 C167 98 153 104 147 95 C141 86 142 68 148 54 Z"/>
  <circle cx="66" cy="100" r="13" fill="#FFFFFF"/>
  <circle cx="134" cy="100" r="13" fill="#FFFFFF"/>
  <circle cx="70" cy="102" r="6" fill="#14181F"/>
  <circle cx="130" cy="102" r="6" fill="#14181F"/>
  <path fill="#14181F" d="M86 132 Q100 122 114 132 Q114 146 100 152 Q86 146 86 132 Z"/>
  <path fill="none" stroke="#14181F" stroke-width="7" stroke-linecap="round" d="M76 164 Q100 180 124 164"/>
</svg>
